<svg width="70" height="32" viewBox="0 0 70 32" fill="none" xmlns="http://www.w3.org/2000/svg">
<path id="path2894" fill-rule="evenodd" clip-rule="evenodd" d="M18.0407 26.4031C18.0407 26.4031 18.1862 27.0432 18.5449 26.802C18.9037 26.5612 19.0492 26.1997 19.408 26.1997C19.7668 26.1997 21.2624 25.9185 21.6212 26.1997C21.98 26.4809 22.0159 26.2396 22.1953 26.2396C22.3747 26.2396 22.9017 26.3332 22.9017 26.3332C23.3604 26.2854 23.2669 25.5562 22.9354 25.3429C22.4568 24.9681 21.8126 24.7273 21.3342 24.3521C21.2862 23.9906 21.2385 23.6292 21.1907 23.2677C21.3222 23.0806 21.4537 22.893 21.5854 22.7054C21.5854 22.1032 21.5854 21.5008 21.5854 20.8983C21.5136 20.7376 21.4418 20.577 21.37 20.4163C21.3461 19.9612 21.3222 19.5061 21.2983 19.0509C21.2385 18.9705 21.1786 18.8902 21.1189 18.8099C21.1189 18.6359 21.1189 18.4619 21.1189 18.2878C21.2385 18.1138 21.4808 17.9398 21.6005 17.7657C21.6363 17.431 21.4759 17.1948 21.5118 16.8601C21.4281 16.4317 21.4179 15.9049 21.3342 15.4765C21.3342 14.9544 21.3342 14.4322 21.3342 13.9102C21.6812 13.8067 21.7653 13.6529 21.7901 13.4973C21.822 13.2969 21.7239 13.0611 21.6212 12.5848C21.5734 10.0814 21.5501 7.47954 21.5023 4.97608C21.6931 4.6769 21.9219 4.52213 21.9268 4.30047C21.9305 4.1279 21.7452 3.98403 21.5136 3.78941C21.5136 3.61538 21.5136 3.44144 21.5136 3.26729C21.5136 3.26729 21.9083 2.46402 22.2312 2.46402C22.5541 2.46402 22.7694 2.22311 22.7694 1.98216C23.0641 1.39672 22.4465 1.33954 22.4465 1.33954C21.763 1.32535 20.9889 1.36034 20.3222 1.34628C19.734 1.33376 19.2513 1.27182 18.679 1.25921C18.4278 1.27269 18.1766 1.28596 17.9254 1.29935C17.3081 1.48681 17.4379 1.82203 17.6743 2.00928C17.9613 2.18997 18.2062 2.39693 18.5354 2.40383C18.9371 2.41219 19.2569 2.54384 19.3966 2.94597C19.4325 4.55245 19.4683 6.15898 19.5042 7.76542C19.5162 8.95022 19.5527 10.1351 19.5646 11.3197C19.5765 12.5044 19.5642 13.6893 19.576 14.874C19.5999 16.2664 19.6238 17.6586 19.6478 19.0509C19.6478 19.0509 19.576 19.573 19.4683 19.6935C19.3607 19.814 19.3966 20.8581 19.3966 20.8581C19.794 21.2043 19.7095 21.1559 19.4325 21.6213C19.4085 22.6522 19.3846 23.6829 19.3607 24.7136C19.265 24.9011 19.1693 25.0887 19.0736 25.2759C19.0736 25.2759 18.0407 25.8811 18.0407 26.4031ZM0.664026 31.3956C0.131965 31.2862 0.0322037 31.0288 0.22119 30.8769C0.3346 30.7858 0.637771 30.7892 0.774065 30.7255C0.973516 30.6315 1.17725 30.5084 1.29733 30.3599C1.50255 30.1058 1.37806 29.5177 1.62297 29.0385C1.8583 27.017 1.9288 24.3388 1.69359 23.4379C1.55238 22.0494 1.69734 17.4372 1.69734 16.8527C1.8536 16.5719 1.91225 16.5489 1.91345 16.0568C1.91387 15.8645 2.04327 15.5652 1.90543 15.3273C1.70549 15.099 1.76592 14.2066 1.75028 13.7035C1.72715 12.9546 1.78211 12.9608 1.99049 12.2823C2.06894 12.0271 2.09552 11.7234 1.99049 11.4786C1.8207 11.0831 1.57522 11.5401 1.59156 10.7457C1.63162 8.81807 1.7035 6.87872 1.65279 4.95184C1.66378 4.78014 1.94973 4.74878 2.00571 4.58648C2.07688 4.38014 2.10046 4.12491 2.00571 3.92892C1.95205 3.81783 1.65174 3.96232 1.56365 3.87814C1.02526 3.3637 0.34872 3.04056 0.0367412 2.35418C-0.0841847 2.08797 0.110847 1.49888 0.367202 1.37156C0.791901 1.16056 1.58187 1.37868 2.04656 1.29852C2.29645 1.25548 2.45459 1.10678 2.70773 1.09563C4.68215 1.00866 6.7139 0.811286 8.68125 1.00619C8.99615 1.03739 9.09996 1.59296 9.387 1.73089C9.78048 1.91997 10.3559 1.87946 10.6574 2.20215C11.1409 2.71916 11.4878 3.14508 11.5491 3.86179C11.6244 4.74133 11.7755 5.73755 11.7681 6.41316C11.7619 6.97892 11.5919 7.48956 11.3396 7.97617C10.9942 8.64308 10.5829 9.26546 10.1376 9.92427C9.88085 10.3039 9.42395 10.6564 9.31643 11.0894C9.20533 11.537 10.3617 11.2084 10.5983 11.6003C10.8257 11.9771 10.4043 12.4185 10.5314 12.8431C10.6449 13.2217 11.3006 13.2586 11.3784 13.6467C11.5792 14.6486 11.1361 15.708 11.3078 16.7155C11.3628 17.0381 11.8746 17.0496 11.9244 17.3732C11.9848 18.0723 11.9632 18.8123 11.9686 19.555C11.9743 20.3456 12.005 21.1397 11.9949 21.8912C11.9754 22.1745 11.6045 22.3402 11.5714 22.6218C11.4831 23.3717 11.7408 24.2186 11.5752 24.954C11.4007 25.7284 10.778 26.2754 10.5351 27.0299C10.3247 27.6833 10.3844 28.6375 10.0449 29.0472C9.48339 29.2236 8.78444 29.6187 8.34213 29.9481C7.6958 30.429 7.28261 30.9801 7.08391 30.9975C6.83144 31.2222 6.29733 31.072 5.98429 31.1889C5.69563 31.2962 5.66843 31.5383 5.36404 31.4988C5.12367 31.468 5.19859 31.2683 5.01113 31.1099C4.90198 31.0171 4.6921 31.0113 4.58766 31.1099C3.9541 31.6198 4.42665 31.4863 3.70724 31.4197C2.97644 31.3524 1.55396 31.5778 0.664318 31.3956H0.664026ZM4.75811 28.4628C4.92282 28.1463 5.08753 27.8298 5.25229 27.5128C5.20512 26.4659 5.15812 25.4186 5.11104 24.3712C5.25229 24.1762 5.39341 23.9815 5.53454 23.7864C5.53454 22.7316 5.53454 21.6768 5.53454 20.6218C5.53454 20.1423 5.4677 19.6627 5.4677 19.1834C4.97223 18.7735 5.20915 18.7795 5.60882 18.3066C5.60882 17.8439 5.72042 17.4706 5.72042 17.0078C5.67325 16.6182 5.62625 16.2284 5.57917 15.8387C5.64984 15.644 5.72042 15.4491 5.79096 15.2542C5.79096 14.6682 5.8578 14.194 5.8578 13.6079C5.8578 13.0576 5.87374 12.8733 5.97436 12.9077C6.07497 12.9422 6.26039 13.1957 6.59892 13.5212C6.85614 13.7685 7.11352 14.016 7.37082 14.2633C7.84612 14.72 8.30893 14.7616 8.11631 15.51C7.93629 16.2101 8.45368 16.4044 8.29288 17.0992C8.17005 17.6299 8.00858 17.9543 8.04435 18.2833C8.06569 18.4807 8.15819 18.6797 8.37224 18.9259C8.5701 19.1533 8.63603 19.1391 8.51778 19.4191C8.33439 19.8529 8.17808 20.1058 8.15973 20.3663C8.13611 20.7009 8.31842 20.8547 8.4783 21.4458C8.60916 21.9293 8.59689 22.2499 8.47581 22.7349C8.33244 23.3102 8.18906 23.8854 8.04565 24.4607C8.02951 24.8957 7.98987 25.3312 7.95896 25.7667C7.91221 26.4301 7.82378 26.4472 7.36246 26.9214C6.94336 27.3523 6.40397 27.7208 5.99964 28.106C5.55267 28.2765 5.20495 28.2923 4.75794 28.4628H4.75811ZM5.83796 10.0015C6.19605 10.012 6.35619 10.0474 6.4672 10.0017C6.57826 9.95587 6.64027 9.82881 6.80223 9.51465C7.01141 9.10844 7.32124 8.60083 7.57821 8.56264C8.01112 8.49838 8.23697 8.43396 8.23697 8.43396C8.23697 8.43396 8.46354 8.39103 8.38605 7.83272C8.30847 7.2744 8.14872 6.7375 8.28951 6.58722C8.43018 6.43695 8.45992 6.00749 8.31014 5.83567C8.16053 5.66397 8.0182 5.49211 8.26003 5.25594C8.50181 5.01972 8.66851 4.62428 8.09073 4.68875C7.51299 4.75318 7.52015 4.50312 7.4534 4.33126C7.38655 4.15951 6.75636 4.19874 6.42685 4.17981C6.09768 4.24424 5.82088 4.22274 5.83036 4.56626C5.83997 4.90979 5.78461 6.56581 5.78935 6.73759C5.79409 6.90937 5.83796 10.0015 5.83796 10.0015ZM24.1134 25.0754C24.0877 25.2214 23.7525 25.2223 23.7783 25.3687C23.8143 25.5729 23.8277 25.8919 24.0335 25.9185C24.6303 25.9959 25.4486 25.7584 26.0404 25.8678C26.2741 25.911 26.2869 26.3095 26.5012 26.4122C26.6772 26.4093 26.9482 26.4156 27.1715 26.4122C27.3433 26.3228 27.2971 26.0075 27.4647 25.9098C27.6711 25.7892 27.9525 25.7434 28.1768 25.8258C28.2976 25.8703 28.1328 26.1876 28.2606 26.203C29.3047 26.1635 30.2374 26.2779 31.2253 26.203C31.4226 26.1706 31.2215 25.8882 31.3832 25.7709C31.5669 25.6374 32.0224 25.8703 32.0534 25.6453C32.2139 24.4819 31.9634 23.1829 32.0727 22.0139C32.1077 21.6396 32.4668 21.4177 32.5471 21.0504C32.5738 20.9281 32.7204 20.9259 32.7321 20.8054C32.7728 20.3859 32.7653 19.8771 32.6592 19.464C32.5184 19.3196 32.0882 19.2672 31.947 19.3329C31.788 19.45 31.9326 19.8657 31.8258 20.0317C31.773 20.1139 31.585 19.9493 31.5326 20.0317C31.4811 20.1127 31.5477 20.2457 31.5712 20.3508C31.5854 20.4137 31.5841 20.4669 31.5326 20.4925C31.2579 20.6299 30.8534 20.304 30.611 20.4925C30.3731 20.6775 30.6402 21.0355 30.439 21.2598C30.1127 21.6234 29.4137 21.8364 29.0888 22.2012C28.7024 22.6347 28.7369 23.0773 28.2929 23.4516C27.9454 23.7444 27.3548 23.7752 26.9337 23.9461C26.4455 24.1445 26.2124 24.5102 25.7053 24.6528C25.5521 24.6961 25.3651 24.4282 25.412 24.276C25.792 23.0444 26.2857 21.8062 26.6959 20.5842C26.959 19.8003 27.0825 19.3058 27.3667 18.5291C27.6609 17.7254 28.0452 16.7319 28.5255 16.0235C28.6201 15.8839 28.9357 15.9751 28.9863 15.814C29.1119 15.4144 28.8769 14.9616 28.9863 14.5573C29.0672 14.2581 29.3823 13.9709 29.643 13.8033C29.8191 13.6901 30.1003 13.8478 30.178 13.6534C30.3596 13.1995 30.1899 12.7187 30.3043 12.2434C30.3814 11.9233 30.6013 11.727 30.7413 11.4288C30.9269 11.0329 30.9134 10.6893 31.1183 10.3031C31.2851 9.98877 31.636 9.54887 31.7371 9.2076C31.8759 8.73896 31.7621 8.50895 31.8073 8.02222C31.8194 7.8912 32.0114 7.81866 32.0167 7.6871C32.0817 6.11069 32.1652 4.5287 32.0727 2.9535C32.0652 2.82514 31.7769 2.83068 31.7794 2.70215C31.7895 2.22079 31.8479 1.79549 31.8213 1.36166C31.8163 1.27689 31.8455 1.20747 31.7608 1.20393C30.4491 1.1489 29.1543 1.17878 27.8417 1.19408C26.7666 1.20652 25.6887 1.12034 24.6161 1.19408C24.4538 1.20523 24.3083 1.23313 24.1972 1.3518C24.0905 1.46564 24.0376 1.7086 24.0438 1.86432C24.072 2.56439 24.0297 3.32656 24.0438 4.16834C24.0463 4.32431 24.3536 4.23098 24.4066 4.3778C24.5543 4.78675 24.5657 5.243 24.5323 5.67641C24.5217 5.81566 24.3524 6.00316 24.3557 6.14259C24.423 6.6272 24.4858 6.96968 24.5742 7.43582C24.6251 7.61609 24.7802 7.75689 24.8256 7.93853C24.8797 8.15565 24.6817 8.59425 24.9049 8.60877C24.979 8.61351 25.2376 8.65673 25.3701 8.60877C25.5406 8.547 25.3074 8.23451 25.3701 8.06418C25.4145 7.94344 25.643 7.93982 25.6634 7.81288C25.7741 7.12309 25.5817 6.31478 25.6911 5.62465C25.7245 5.41436 25.845 5.19221 26.0262 5.08012C26.1804 4.98466 26.4594 5.22333 26.5708 5.08012C26.7253 4.88142 26.5733 4.65253 26.6688 4.41969C26.8055 4.08648 27.0279 3.77922 27.2971 3.53997C27.5444 3.32015 27.7918 3.05707 28.1208 3.02284C28.8563 2.94643 29.7362 3.01501 30.7322 2.97213C30.8256 2.96797 30.8507 3.11156 30.8579 3.20485C30.8931 3.66426 30.9767 4.28842 30.8579 4.58727C30.6854 5.02101 30.2951 5.50512 29.899 5.95559C29.6279 6.26359 29.3539 6.53619 29.1448 6.84494C28.8942 7.21508 29.2687 7.71983 29.1403 8.148C29.009 8.58598 28.6502 9.05154 28.3721 9.41458C28.144 9.71239 27.8087 9.86483 27.5949 10.173C27.3279 10.5578 27.1725 10.9367 27.0039 11.3736C26.8637 11.7369 26.7734 12.1203 26.7106 12.5047C26.6612 12.8082 26.8062 13.1513 26.6688 13.4263C26.5681 13.6277 26.3409 13.5905 26.1944 13.7614C25.9913 13.9985 25.8722 14.3024 25.7755 14.5992C25.6609 14.9507 25.6515 15.159 25.4726 15.4825C25.2718 15.8453 24.8689 16.1958 24.6863 16.5681C24.4871 16.9741 24.4643 17.4675 24.3648 17.9086C24.2685 18.3352 24.1879 18.737 24.0998 19.1653C23.992 19.6895 23.8794 20.2222 23.8904 20.7572C23.8937 20.92 24.0659 21.0321 24.1417 21.1761C24.2057 21.2977 24.3527 21.4227 24.3093 21.5531C24.25 21.7313 23.9169 21.7442 23.8904 21.9301C23.863 22.1221 23.9119 22.2994 24.0528 22.433C24.1754 22.5486 24.4257 22.4983 24.5137 22.6422C24.6083 22.7973 24.5913 23.0228 24.5137 23.1866C24.4491 23.3235 24.2223 23.2902 24.1927 23.4383C24.0722 24.041 24.2201 24.4702 24.1134 25.0754ZM60.4342 31.0121C60.3556 30.7626 60.5519 30.7139 60.6825 30.5837C60.8734 30.3932 61.0581 30.2073 61.1338 29.8321C61.1625 29.6898 61.3081 29.4598 61.3418 29.2319C61.3913 28.8991 61.3156 28.5522 61.2249 28.3372C61.1059 28.0556 60.9109 27.9088 60.9816 27.6401C61.0065 27.4683 61.395 27.4471 61.7011 27.3111C61.8617 27.24 61.9994 27.1006 62.0505 26.9696C62.1175 26.797 61.8945 26.8265 61.781 26.6073C61.66 26.374 61.6421 26.0246 61.5489 25.8507C61.3863 25.5479 61.0889 25.1415 61.0781 24.7976C61.0489 23.88 61.3147 22.9537 61.3488 22.0709C61.3775 21.3306 61.5526 21.1541 61.4961 20.3956C61.4682 20.0179 61.2652 19.743 61.0556 19.3574C60.8822 19.0378 60.6542 18.7215 60.5669 18.4201C60.4117 17.8836 60.5677 17.2477 60.4737 16.6973C60.4554 16.5894 60.185 16.4574 60.1751 16.3483C60.1052 15.5926 60.1905 14.8188 60.1418 14.0714C60.1168 13.9308 60.0029 13.904 59.9895 13.7618C59.95 13.3428 59.9891 12.9348 59.9879 12.5726C59.9866 12.253 59.9426 11.9799 59.9426 11.6085C59.9426 11.4701 59.8277 11.3752 59.8232 11.2368C59.7953 10.4195 59.8294 9.51711 59.8186 8.69854C59.807 7.8271 59.7537 7.0394 59.8232 6.17167C59.8352 6.02538 60.131 6.02891 60.1251 5.88233C60.0977 5.21741 60.0403 4.95296 60.0557 4.28418C60.0574 4.20702 60.2154 4.02771 60.2216 3.95076C60.2678 3.39436 60.3369 2.83741 60.195 2.36125C60.0927 2.01635 59.834 1.90891 59.537 1.68642C59.275 1.48989 58.9826 1.17042 58.7401 0.991356C58.4298 0.762049 58.2231 0.577616 57.9881 0.234217C57.8466 0.0275372 58.08 0.00948808 58.3403 0.0018764C58.6748 -0.00789817 59.04 0.0213024 59.3582 0.0711318C59.4659 0.0879774 59.6684 0.273609 59.7704 0.313082C60.0158 0.408248 60.1763 0.284677 60.4275 0.363081C60.6193 0.423018 61.42 0.840453 61.6354 0.964611C61.9299 1.13423 62.0252 1.38072 62.3325 1.5248C62.3879 1.55071 63.3374 1.82252 63.4477 1.85009C63.7047 1.91427 63.8644 1.72632 64.1215 1.7905C64.4201 1.86495 64.9513 2.01539 65.2865 2.11575C65.4754 2.17224 65.5947 2.39544 65.7882 2.43395C66.7261 2.62113 66.5585 2.30847 67.3013 3.05121C67.5201 3.27008 67.8816 3.44585 68.0446 3.70885C68.2751 4.07999 68.2992 4.5349 68.4456 4.9394C68.5596 5.25389 68.8141 5.51223 68.8744 5.8464C69.0371 6.7457 68.8673 7.68085 68.9776 8.58805C69.0113 8.86515 69.2962 9.15744 69.3261 9.43504C69.4397 10.4978 69.4588 11.5471 69.3295 12.608C69.2858 12.9656 68.9846 13.1111 68.931 13.4673C68.8416 14.0648 69.02 14.6767 68.9776 15.2796C68.9576 15.5682 68.7971 15.8696 68.6457 16.116C68.535 16.2954 68.2821 16.3601 68.201 16.5543C67.9876 17.0643 68.0413 17.7615 67.9423 18.314C67.9115 19.3686 67.9331 20.1868 67.9785 21.2408C68.0105 21.9837 68.0866 22.6505 67.9918 23.388C67.9585 23.6433 67.7447 23.7835 67.7065 24.0385C67.6008 24.7431 67.6915 25.4668 67.6233 26.176C67.6116 26.2966 67.4328 26.4364 67.4074 26.5549C67.36 27.203 67.3146 28.1488 67.0322 28.8784C66.8463 29.3596 66.3942 29.8446 65.9599 30.1232C65.5394 30.3932 65.0873 30.4514 64.6027 30.575C64.2966 30.6527 63.9539 30.6153 63.6735 30.7605C63.5055 30.8478 63.6182 30.8491 63.4647 30.9589C63.3761 31.0217 63.2231 31.0271 63.1394 30.9589C63.0213 30.862 63.0579 30.8224 62.9203 30.7571C62.7102 30.6577 62.4365 30.6656 62.2231 30.7571C62.0692 30.8233 62.1254 30.9435 61.9607 30.9755C61.6283 31.0404 61.239 31.1244 60.8797 31.1149C60.6646 31.1095 60.4949 31.2064 60.4342 31.0121ZM63.5533 7.14883C64.02 7.12413 64.1115 7.09879 64.527 7.32198C64.9567 7.55237 65.0465 7.70436 65.309 8.12067C65.4446 8.25127 65.5798 8.38196 65.715 8.51248C66.2669 9.04521 66.5273 9.79711 66.7527 10.5017C66.7897 11.2666 66.954 12.6066 66.5722 13.3007C66.3817 13.6472 66.3064 13.9146 66.274 14.2086C66.1837 15.0312 65.9504 14.9027 65.7129 15.5256C65.6484 15.6946 65.6625 15.9048 65.6567 16.3058C65.6359 17.7378 65.6147 19.17 65.5939 20.6019C65.5806 21.5168 65.4084 21.9534 65.0386 22.7982C64.8215 23.202 64.7075 23.4624 64.7075 23.9208C64.7075 24.464 64.5965 24.7144 64.3806 25.2094C64.2492 25.5105 64.1173 25.812 63.9859 26.1136C63.8299 26.4709 63.6868 26.599 63.5833 26.5512C63.4797 26.5037 63.4156 26.2796 63.4173 25.9327C63.4265 24.1845 63.4356 22.4367 63.4448 20.6885C63.4647 18.8299 63.4847 16.9714 63.5047 15.1129C63.4814 14.7137 63.4963 14.6253 63.2343 14.3293C63.2098 13.7276 63.0937 13.4555 62.9032 12.8826C62.6628 12.431 62.6902 12.1015 62.6844 11.5851C62.6694 10.2934 62.6541 9.0015 62.6391 7.70981C62.6299 6.91715 62.8092 7.18814 63.5533 7.14883ZM33.0916 29.3721C32.9478 28.6691 33.0484 28.1105 33.086 27.5819C33.104 27.4558 33.3583 27.5735 33.4274 27.4671C33.5304 27.3078 33.6235 27.0894 33.5554 26.9122C33.5145 26.8061 33.4422 26.9525 33.3812 26.8565C33.2969 26.7242 33.3265 26.5104 33.4238 26.3873C33.5658 26.2072 33.8499 26.2538 33.9469 26.0458C34.0792 25.7621 33.8522 25.4053 33.9469 25.107C33.9771 25.0122 34.2222 25.2039 34.2456 25.107C34.3562 24.6507 34.2186 24.1633 34.2883 23.6991C34.3064 23.578 34.4133 23.5219 34.4273 23.4004C34.4865 22.8918 34.5173 22.3685 34.4273 21.8643C34.3715 21.5513 34.1185 21.3259 34.0749 21.011C33.9166 19.8685 33.8687 18.6245 34.0157 17.4805C34.1298 16.5923 34.6961 15.2189 35.0286 14.3874C35.2367 13.8673 35.3386 14.0295 35.5256 13.5013C35.5827 13.3399 35.6224 13.1517 35.5683 12.9893C35.5009 12.7869 35.2621 12.6322 35.2957 12.4216C35.3369 12.1635 35.6543 12.17 35.739 11.9226C35.854 11.5862 35.6225 11.1917 35.739 10.8559C35.8761 10.4607 36.3485 10.2337 36.4643 9.83185C36.575 9.44835 36.4564 8.83567 36.5647 8.45142C36.7788 7.69229 37.036 7.20194 37.4031 6.5037C37.6198 6.09142 37.9964 5.74308 38.1656 5.30897C38.3287 4.8907 38.3121 4.33695 38.3844 3.98627C38.1178 3.65294 37.5059 4.11817 37.1044 3.97321C36.9007 3.89972 36.9014 3.56668 36.6998 3.48728C36.268 3.45792 35.8552 3.44797 35.5478 3.67852C35.1354 3.98773 35.1321 4.35022 34.9709 4.83962C34.7301 5.57088 34.9137 6.39244 34.613 7.10103C34.4942 7.38125 34.0092 7.46003 33.7763 7.65573C33.653 7.75922 33.5957 7.86712 33.4349 7.86712C33.274 7.86712 33.1337 7.81154 33.0935 7.65573C33.0118 7.33908 33.1095 7.00113 33.0935 6.67436C33.081 6.41715 32.9432 6.15552 33.0082 5.90633C33.0421 5.77652 33.3392 5.8268 33.3496 5.693C33.4771 4.22698 33.3018 2.7704 33.3242 1.36952C33.332 0.877671 33.4625 0.950593 33.9467 0.945685C34.7623 0.937283 36.0548 0.943598 36.9922 0.938856C38.6369 0.93062 40.2857 0.869233 41.9257 0.914154C42.1699 0.931832 42.4877 1.02246 42.5047 1.26654C42.5392 1.76009 42.2086 2.236 41.9798 2.67461C41.8588 2.90641 41.5884 3.05794 41.4994 3.30356C41.348 3.71987 41.5123 4.21317 41.3526 4.62628C41.2548 4.87979 40.7578 4.92668 40.6625 5.18098C40.5274 5.54073 40.7607 5.9755 40.6197 6.333C40.5498 6.51052 40.1713 6.40912 40.1077 6.58901C39.893 7.19787 40.0191 7.88558 39.8519 8.50911C39.7591 8.8533 39.4983 9.09463 39.4513 9.44781C39.3232 10.4065 39.5345 11.3858 39.4513 12.3493C39.433 12.5585 39.2122 12.7028 39.1523 12.904C39.0117 13.3771 38.9231 13.8884 38.7609 14.3547C38.691 14.5561 38.4314 14.6605 38.3769 14.8667C38.2968 15.1692 38.4976 15.5168 38.3769 15.8054C38.225 16.1682 37.6905 16.3166 37.6089 16.7015C37.3785 17.7874 37.7433 18.9325 37.5737 20.0295C37.4979 20.5205 37.0652 20.9062 36.9764 21.3949C36.8619 22.0246 37.059 22.769 36.9021 23.3892C36.7507 23.9881 36.3166 24.5073 36.0989 25.085C36.0479 25.6519 35.3686 26.1722 35.739 26.6007C36.1858 26.6597 36.9272 26.7508 37.4457 26.515C37.6844 26.4068 37.408 25.906 37.6164 25.7472C38.2535 25.2605 38.9846 25.085 39.6996 24.7231C40.1085 24.516 40.6226 24.3184 40.9874 24.0406C41.1725 23.8992 41.1937 23.5635 41.4137 23.4857C41.5464 23.4387 41.5739 23.7606 41.7124 23.7843C42.189 23.8655 42.6025 23.6616 43.0704 23.7843C43.2576 23.8334 43.2518 24.0851 43.3004 24.2722C43.3441 24.4399 43.4198 24.6204 43.3266 24.7655C43.2705 24.8529 43.0671 24.7556 43.0276 24.8512C42.9464 25.0484 42.9781 25.2838 43.0276 25.491C43.0667 25.6523 43.2143 25.7526 43.2281 25.9177C43.3013 26.7824 43.3254 27.6584 43.2281 28.5206C43.2077 28.7016 43.1049 28.8912 42.924 28.91C41.6932 28.8534 40.5556 28.9437 39.3232 28.9474C39.1964 28.9362 39.2691 28.7116 39.1523 28.6616C38.8345 28.5252 38.2614 28.5065 37.9242 28.5839C37.5318 28.6737 37.499 28.9965 37.1044 29.0751C36.3932 29.2173 35.5712 29.078 34.854 29.1865C34.6005 29.2248 34.4069 29.4399 34.1583 29.5018C33.8133 29.5879 33.2693 29.6799 33.0916 29.3721ZM14.0856 31.3761C13.5535 31.5628 12.9328 31.3765 12.3688 31.3885C12.195 31.3923 11.9121 31.5287 11.7451 31.4796C11.5629 31.4264 11.2757 31.0649 11.3896 30.9127C11.8347 30.3192 12.7121 30.2451 13.1185 29.625C13.3575 29.2602 13.1337 28.769 13.2364 28.3451C13.2679 28.2149 13.496 28.227 13.5634 28.1114C13.6183 28.0174 13.6344 27.8672 13.5634 27.7844C13.4014 27.5952 13.2988 27.992 13.2349 27.4255C13.1776 26.9189 13.1656 26.4043 13.2126 25.8981C13.2421 25.5758 13.4765 25.644 13.5208 25.4739C13.6033 25.1574 13.4316 24.9228 13.5166 24.6067C13.5547 24.4648 13.8176 24.5006 13.8905 24.3729C13.9599 24.2514 13.9681 24.0693 13.8905 23.9524C13.7313 23.7136 13.2986 23.7174 13.2504 23.4345C13.1617 22.9142 13.2092 22.3556 13.2184 21.8393C13.2282 21.2895 13.1904 20.7381 13.2363 20.1779C13.2447 20.074 13.48 20.0784 13.5166 19.9807C13.5876 19.7912 13.5427 19.574 13.5166 19.3732C13.4957 19.2121 13.5452 18.8826 13.5329 18.7207C13.5139 18.4718 13.407 18.3794 13.5227 18.1583C13.6033 18.0042 13.8663 18.097 13.8905 17.9246C14.0183 17.0146 13.7454 16.0815 13.8437 15.1677C13.8604 15.0129 14.1041 15.0375 14.1451 14.8873C14.2111 14.645 14.2314 14.3666 14.1241 14.1397C14.0735 14.0326 13.8346 14.0322 13.8254 13.914C13.7205 12.5787 13.9031 11.3162 13.797 9.98092C13.7871 9.85585 13.4799 10.0312 13.4742 9.48857C13.4679 8.91981 13.4155 8.38966 13.4232 7.9716C13.4291 7.65082 14.1212 7.64217 14.1139 7.3214C14.1028 6.83259 14.1798 6.28093 14.0672 5.77939C14.031 5.61813 13.8206 5.6448 13.7503 5.49502C13.6841 5.35435 13.7465 5.21405 13.8071 5.07051C13.8798 4.89777 14.0774 4.78874 14.1241 4.60719C14.2096 4.27552 14.201 3.91311 14.1241 3.57919C14.0989 3.46993 13.9103 3.36316 13.8579 3.264C13.7608 3.08049 13.8047 2.91852 13.6751 2.7563C13.5855 2.64437 13.3209 2.71314 13.2119 2.62009C12.9313 2.38051 12.7696 2.11413 12.5343 1.89593C12.3131 1.691 12.015 1.53656 11.8445 1.23484C11.735 1.04101 11.8626 0.705724 12.0396 0.570378C12.1755 0.466476 12.3884 0.489977 12.5394 0.570378C12.6621 0.635847 12.6597 0.896599 12.7974 0.91569C13.3997 0.999585 13.9975 0.734471 14.5914 0.864993C14.8502 0.921935 14.864 1.24895 15.1054 1.35846C15.2668 1.43179 15.5578 1.29004 15.7047 1.38928C15.9203 1.53499 16.1033 1.84498 16.2732 2.01809C16.4917 2.24066 16.6801 2.33974 16.7917 2.6549C16.9325 3.05282 16.8708 3.46111 16.8646 3.87502C16.8592 4.24021 16.9186 4.61006 16.8851 4.98103C16.8739 5.10581 16.6342 5.04709 16.6007 5.16792C16.5419 5.38005 16.5839 5.61751 16.6941 5.80788C16.7743 5.94652 16.9914 5.87593 17.0436 6.02725C17.1654 6.38088 17.1809 6.81438 17.0903 7.17724C17.0566 7.31234 16.7959 7.22528 16.7876 7.36416C16.6827 9.12117 16.6565 10.8934 16.8343 12.6444C16.8645 12.942 17.335 13.048 17.3666 13.3453C17.543 15.0026 17.3824 16.6801 17.3138 18.3452C17.3042 18.582 17.1868 18.8797 17.0903 19.0564C16.9823 19.2539 17.0495 19.4513 17.0535 19.6693C17.0588 19.9496 17.0253 20.2553 17.0679 20.5414C17.0923 20.7048 17.4248 20.8604 17.4133 21.0252C17.3818 21.4795 17.4464 21.6942 17.4742 22.1421C17.4876 22.3577 17.095 22.4924 16.9704 22.6688C16.8809 22.7957 16.8264 23.0415 16.8994 23.1787C16.9682 23.3081 17.0919 23.2424 17.131 23.3838C17.1864 23.5839 17.191 23.7527 17.0903 23.9345C17.0254 24.0514 16.7859 24.036 16.7632 24.1678C16.6996 24.5376 16.9096 24.9182 16.8567 25.2896C16.8409 25.4007 16.5929 25.3653 16.5763 25.4764C16.4932 26.0308 16.6703 26.6057 16.5763 27.1584C16.5408 27.3672 16.2174 27.4613 16.2025 27.6726C16.1941 27.7907 16.4738 27.7083 16.5296 27.8127C16.6178 27.9783 16.3964 28.321 16.5763 28.3734C17.1742 28.5485 17.914 28.5032 18.5165 28.3451C18.8578 28.2553 19.0022 27.7769 19.3536 27.7437C19.7769 27.7037 20.0892 27.9833 20.5076 28.0581C21.0592 28.1575 21.6627 28.1754 22.204 28.0298C22.5234 27.9437 22.7089 27.6047 23.037 27.5611C24.457 27.3702 25.7749 27.4875 27.2077 27.48C28.5626 27.4725 30.2958 27.4043 31.3017 27.5141C31.8753 27.5332 31.2533 29.5626 31.4601 30.6344C31.5051 30.8678 31.7045 30.9984 31.8243 31.2143C32.0154 31.5586 32.0895 31.7338 31.5933 31.7317C30.6601 31.7271 29.7158 31.7991 28.7032 31.7562C28.5043 31.7479 28.5139 31.3644 28.3294 31.2887C28.1272 31.2059 27.8875 31.3869 27.6752 31.3357C27.357 31.2588 26.9984 30.9539 26.6736 30.9152C25.8076 30.8112 24.9349 31.0283 24.0711 30.909C23.875 30.8819 23.848 30.5026 23.6506 30.488C21.6312 30.3404 19.6963 30.5525 17.675 30.4423C17.242 30.4186 17.2025 30.2676 16.9277 30.1877C16.5388 30.0754 15.8434 30.0305 15.4771 30.2023C14.7945 30.5217 14.7967 31.1261 14.0855 31.3761H14.0856ZM38.394 23.4807C37.9722 23.4682 37.9441 22.7907 37.9776 22.3751C38.0119 21.9501 38.567 21.9723 38.765 21.5948C38.9094 21.3199 38.6931 20.8366 38.8578 20.5733C39.035 20.2897 39.5154 20.3002 39.6926 20.0167C39.7941 19.8546 39.6427 19.5438 39.6472 19.3527C39.6585 18.9003 39.7599 18.567 39.7392 18.115C39.7283 17.8799 39.6306 17.4552 39.6751 17.2241C39.7362 16.9084 39.9242 16.985 40.0174 16.6772C40.1335 16.2921 39.9405 15.854 40.0636 15.4712C40.1127 15.3198 40.5095 15.3958 40.4812 15.2393C40.4467 15.0488 40.0994 15.1514 40.0648 14.961C39.9596 14.3813 39.9538 13.6993 40.1102 13.1314C40.2079 12.7761 40.611 12.5043 40.7133 12.1501C40.8202 11.7789 40.5939 11.358 40.7133 10.9905C40.794 10.741 41.2062 10.6883 41.2698 10.4339C41.4195 9.83387 41.286 9.09783 41.442 8.49942C41.5239 8.18538 41.6878 7.82943 41.8887 7.63261C42.0093 7.51444 42.1179 7.42859 42.1745 7.24237C42.2518 6.98732 42.0618 6.77282 42.1054 6.50982C42.1441 6.27714 42.3217 6.12779 42.4344 5.92086C42.5771 5.65956 42.6366 5.32852 42.7734 5.06448C42.9731 4.67845 43.2418 4.3555 43.3848 3.9448C43.4917 3.63859 43.2621 3.13913 43.399 2.84485C43.5928 2.42817 44.0936 2.43844 44.2845 2.02034C44.4388 1.6826 44.1689 1.24116 44.3311 0.90716C44.4488 0.663836 44.7146 0.556408 44.9846 0.545676C45.1825 0.537815 45.423 0.674816 45.4903 0.86074C45.623 1.22506 45.5032 1.66284 45.6534 2.02034C45.9167 2.64903 46.3734 3.01959 46.6267 3.65252C46.7585 3.98253 46.6159 4.45708 46.6966 4.80326C46.8064 5.2739 46.8833 5.74853 47.0389 6.20685C47.2319 6.7776 47.5085 7.33122 47.6707 7.91087C47.8142 8.42422 47.8487 8.98121 47.9594 9.50371C48.0405 9.88496 48.1885 10.235 48.32 10.6011C48.3761 10.7583 48.5662 10.7184 48.6115 10.8793C48.691 11.1637 48.4522 11.4729 48.5188 11.7606C48.5978 12.1044 48.968 12.4528 49.0287 12.8002C49.1277 13.3636 49.0246 13.9025 49.0383 14.4744C49.0508 14.997 49.1061 15.4824 49.1747 15.9834C49.2172 16.2917 49.3877 16.7314 49.3956 16.9555C49.4243 17.7903 49.4613 18.6121 49.4705 19.4479C49.4846 20.6693 49.4846 21.975 49.4235 23.1941C49.4164 23.3364 49.2467 23.4092 49.1968 23.5427C49.0075 24.0481 48.849 24.3276 48.7276 24.8537C48.6635 25.1311 48.6615 25.4298 48.5421 25.6885C48.4689 25.8474 48.1424 25.9776 48.087 26.1435C47.9643 26.5129 48.1149 26.8843 48.0879 27.3452C48.065 27.742 47.9007 27.9699 47.7356 28.3389C47.6224 28.5909 47.4386 28.984 47.3687 29.2469C47.2926 29.5322 47.4294 29.845 47.3458 30.1283C47.3018 30.2763 47.0996 30.3479 47.0676 30.4993C46.9873 30.8773 47.137 31.2899 47.021 31.6585C46.9557 31.8673 46.9104 31.8369 46.7111 31.9268C46.5697 31.99 46.1987 32.0619 46.1775 31.908C46.0876 31.2625 46.2694 30.8141 46.1671 30.1698C46.0473 29.4162 45.732 28.9578 45.5419 28.2182C45.4496 27.8593 45.6147 27.2104 45.4442 26.8814C45.1372 26.2887 44.1543 26.0491 44.1972 25.3832C44.2384 24.7389 44.6235 24.3196 45.0157 23.7956C45.2836 23.4366 45.4579 22.8506 45.6247 22.4417C45.7474 22.1402 45.8189 21.787 45.8243 21.4896C45.8326 21.0457 45.7124 20.8525 45.3764 20.5765C44.6743 19.9995 43.5396 19.4719 42.6657 19.047C42.5376 18.9848 42.3874 19.2292 42.3874 19.3717C42.3874 19.5143 42.5542 19.6251 42.5709 19.7664C42.6195 20.182 42.3679 20.6133 42.548 20.9907C42.7381 21.3896 43.488 21.5057 43.3769 21.9331C43.3021 22.2194 43.2318 22.3202 42.9889 22.46C42.8416 22.5448 42.6782 22.539 42.506 22.5469C41.9894 22.5706 41.4582 22.3876 40.9591 22.4933C40.4171 22.6081 39.9321 22.8585 39.4314 23.108C39.0998 23.2736 38.7609 23.4919 38.394 23.4807ZM42.9627 16.9961C42.9581 16.587 42.9481 16.1843 42.9489 15.7819C42.9498 15.4266 42.9585 15.0713 42.9864 14.7117C43.0047 14.4781 43.2185 14.2998 43.2459 14.0672C43.2921 13.6826 43.0559 13.221 43.1636 12.8512C43.2068 12.7011 43.5874 12.8516 43.6735 12.7254C43.7018 12.6841 43.7596 12.4433 43.8557 12.238C43.9135 12.1148 44.0337 12.0043 44.0337 11.9571C44.0337 11.8884 44.0291 11.4001 44.0807 10.977C44.1107 10.7315 44.1485 10.5241 44.1859 10.5225C44.223 10.5208 44.2604 10.7244 44.3906 10.8938C44.5403 11.0886 44.5911 11.2819 44.7221 11.488C44.7995 11.6096 44.8826 11.7528 45.0103 11.8024C45.173 11.8657 45.3676 11.7767 45.5294 11.842C45.6505 11.8908 45.68 12.0807 45.789 12.1564C45.8626 12.2076 46.0315 12.1101 46.0485 12.2036C46.1255 12.6247 46.0589 13.1883 46.1259 13.6113C46.1421 13.7128 46.3663 13.6656 46.3713 13.7685C46.4054 14.5053 46.4225 15.2432 46.42 15.9812C46.4179 16.6323 46.4008 17.2837 46.3671 17.9343C46.358 18.1198 45.868 18.1327 45.7312 18.0286C45.4666 17.8271 45.299 17.5931 44.9529 17.5099C44.8086 17.4753 44.8157 17.2467 44.6788 17.2011C44.3752 17.1 43.9921 17.0748 43.6748 17.0748C43.4676 17.0748 43.1686 17.1479 42.9627 17.1219C42.9248 17.1171 42.9631 17.0378 42.9627 16.9961ZM52.8129 4.2974C52.8138 4.72129 52.8591 5.18056 52.8604 5.62441C52.8624 6.19562 52.8208 6.70735 52.8229 7.28313C52.825 7.89627 52.8708 8.57354 52.8708 9.17316C52.8708 9.66056 52.7817 10.5974 52.8196 11.0022C52.8678 11.5228 52.8965 11.6129 53.6082 11.6129C53.9526 11.6129 54.4193 11.2597 54.7633 10.9027C54.9987 10.6583 54.9633 10.2365 55.0536 10.054C55.1867 9.7858 55.4142 9.54047 55.4616 9.2291C55.5224 8.82859 55.376 8.49797 55.643 8.24179C55.7482 8.14047 55.8476 6.99048 55.8476 6.73743C55.8476 6.37672 55.4687 5.84183 55.0332 5.36325C54.7354 5.03578 54.3781 4.74187 54.2259 4.51756C53.9468 4.10686 53.738 3.92667 53.4073 3.8528C52.8034 3.71791 52.8125 3.77336 52.8129 4.2974ZM49.6244 26.869C49.5116 27.314 49.8544 27.4958 50.2599 27.7578C50.6646 28.0198 51.133 28.3626 51.5739 28.724C52.32 29.3355 52.8279 30.4514 53.3133 31.5503C53.5633 31.2846 53.3869 30.0459 53.5271 29.3039C53.5571 29.145 53.7284 29.0302 53.7446 28.8692C53.802 28.2923 53.8162 27.7054 53.7446 27.1302C53.7176 26.9155 53.51 26.7587 53.4547 26.5503C53.4111 26.3869 53.4215 26.2084 53.4547 26.0429C53.4951 25.8407 53.6535 25.6686 53.6718 25.4631C53.7268 24.8616 53.7625 24.2485 53.6718 23.6516C53.6377 23.4262 53.2925 23.2989 53.3096 23.0718C53.3241 22.8838 53.7305 22.8976 53.7446 22.7096C53.7842 22.1708 53.5974 21.651 53.5308 21.1152C53.3803 19.9107 53.2925 18.6992 53.1681 17.4918C53.1236 17.0567 52.9498 16.6186 53.0234 16.1874C53.2501 15.5993 53.4572 14.9951 53.6756 14.5207C53.7821 14.3808 53.9227 14.654 54.0308 14.7925C54.3839 15.2435 54.8531 15.8015 54.9546 16.3651C55.079 17.0561 54.7046 17.6674 54.7845 18.3651C54.8078 18.5686 55.1214 18.5321 55.1938 18.7238C55.5398 19.6394 55.821 20.5861 55.9911 21.55C56.185 22.6484 56.2473 23.7685 56.281 24.8837C56.2956 25.3687 56.2748 25.8678 56.1359 26.3328C55.9379 26.9971 55.5253 27.5265 55.3206 28.1683C55.1064 28.8397 55.0374 29.0402 55.7478 29.0397C56.029 29.0393 56.3572 29.0505 56.5743 29.1591C57.1558 29.4498 57.3957 30.1203 57.9477 30.4635C58.0671 30.5375 58.2231 30.6403 58.3874 30.7322C59.1701 31.1706 59.2562 30.8678 59.4193 30.1823C59.6343 29.276 59.6888 28.4587 59.8282 27.5648C59.8993 27.1114 59.8843 26.6464 59.9043 26.1881C59.9326 25.5346 59.9817 24.8845 59.948 24.2311C59.9326 23.9262 59.9342 23.5926 59.7342 23.3618C59.584 23.1883 59.141 23.3655 59.082 23.1442C59.0009 22.841 59.4384 22.5885 59.4443 22.2745C59.3245 21.4273 59.2147 20.6691 59.2005 19.834C59.1843 18.8495 58.9734 19.3451 58.6469 18.9592C58.4497 18.726 58.3882 18.5204 58.3574 18.2165C58.2663 17.327 58.3953 16.3427 58.2593 15.4591C58.1985 15.064 58.0138 14.6742 57.7522 14.3721C57.6574 14.2626 57.4835 14.4255 57.4186 14.2959C57.3101 14.0789 57.6437 13.9303 57.5164 13.7235C57.2206 13.2433 56.6017 12.8767 56.1325 12.5641C55.992 12.4703 55.7445 12.6836 55.6251 12.5641C55.5057 12.4445 55.5086 12.0775 55.6251 11.9553C56.4607 11.8343 56.8908 11.4409 57.2988 10.9698C57.8525 10.3312 58.1232 9.61934 58.4007 8.82119C58.5288 8.4533 58.3649 8.02334 58.4077 7.63631C58.4872 6.92011 58.8628 6.2697 58.7376 5.56007C58.5558 4.52808 58.0471 3.60329 57.4623 2.73385C57.1375 2.25119 56.6329 1.8234 56.1072 1.57438C55.6684 1.36658 55.3011 1.54044 54.8352 1.40413C54.2958 1.24633 53.8636 0.944564 53.3133 0.831761C52.8849 0.743915 52.4353 0.922685 52.0089 0.824399C51.7427 0.763007 51.6995 0.463769 51.4291 0.422258C51.2428 0.393558 51.0523 0.663589 50.8643 0.679478C49.5645 0.789577 48.4976 0.53781 47.204 0.70847C47.011 0.733967 47.0659 0.949216 47.2261 1.05994C47.4652 1.22544 47.8287 1.14371 48.0958 1.25921C48.5749 1.46685 48.9435 1.74599 49.2987 2.12882C49.5927 2.44543 49.7125 2.7976 49.9796 3.28829C50.0894 3.48943 50.4051 3.10319 50.6322 3.07087C50.9188 3.02994 51.118 3.02225 51.2989 3.24848C51.4616 3.45142 51.1251 3.72187 50.9333 3.89694C50.5452 4.25065 50.2811 4.43798 49.938 4.67282C49.7034 4.83358 49.2879 4.97791 49.1136 5.29195C48.7268 5.98864 49.1855 6.78096 49.3344 7.56385C49.3889 7.84939 49.4513 8.12853 49.5162 8.41174C49.7267 9.33259 49.656 10.099 49.7841 11.0349C49.8257 11.3374 50.0403 11.601 50.074 11.9045C50.1139 12.2653 50.049 12.5311 50.1031 12.89C50.1256 13.0428 50.2508 13.2049 50.2915 13.3538C50.472 14.0165 50.6309 14.8488 50.6538 15.5352C50.7278 17.7806 50.5947 19.9803 50.7079 22.2242C50.7183 22.4284 51.0248 22.5091 51.0668 22.7096C51.1321 23.0203 50.925 23.3771 50.8206 23.677C50.3918 24.9049 49.8889 25.8237 49.6244 26.869Z" fill="white"/>
</svg>
